<?xml version="1.0" standalone="no"?>
<!DOCTYPE svg PUBLIC "-//W3C//DTD SVG 20010904//EN"
 "http://www.w3.org/TR/2001/REC-SVG-20010904/DTD/svg10.dtd">
<svg version="1.0" xmlns="http://www.w3.org/2000/svg"
 width="740.000000pt" height="740.000000pt" viewBox="0 0 740.000000 740.000000"
 preserveAspectRatio="xMidYMid meet">

<g transform="translate(0.000000,740.000000) scale(0.100000,-0.100000)"
fill="#000000" stroke="none">
<path d="M0 3700 l0 -3700 3700 0 3700 0 0 3700 0 3700 -3700 0 -3700 0 0
-3700z m1875 2235 c0 -112 -3 -136 -21 -175 -24 -50 -60 -99 -50 -67 12 38 38
179 34 183 -3 2 -17 -42 -32 -98 -15 -57 -34 -114 -42 -128 -14 -23 -15 -21
-8 35 3 33 19 111 35 174 16 63 27 117 25 119 -8 7 -66 -187 -78 -258 -13 -78
-33 -97 -23 -22 7 50 23 143 31 177 4 17 4 18 -6 3 -5 -9 -18 -52 -29 -95 -18
-76 -19 -77 -26 -41 -15 79 35 202 129 314 36 42 40 45 50 28 6 -11 11 -72 11
-149z m3786 17 c38 -63 62 -154 53 -202 -6 -33 -8 -30 -29 48 -12 45 -25 85
-30 90 -4 4 -5 -2 -2 -13 6 -20 20 -104 31 -182 10 -72 -9 -48 -22 27 -13 75
-71 265 -78 257 -3 -3 2 -29 10 -58 19 -67 56 -244 56 -271 0 -41 -18 -5 -45
89 -39 140 -46 157 -39 103 3 -25 12 -70 19 -100 8 -30 12 -56 10 -58 -8 -8
-46 64 -62 118 -12 41 -14 81 -11 166 3 61 9 117 13 125 10 15 77 -58 126
-139z m-911 -142 c0 -71 5 -152 11 -180 14 -64 60 -125 124 -165 47 -29 52
-30 209 -35 89 -3 160 -8 159 -12 -2 -5 -3 -183 -3 -398 l0 -390 -55 0 -55 0
0 344 0 344 -113 4 c-104 3 -118 6 -179 36 -78 38 -138 101 -177 182 -22 47
-26 72 -29 173 l-4 117 -938 0 -938 0 -4 -117 c-4 -104 -8 -125 -33 -178 -36
-76 -109 -149 -183 -183 -49 -23 -73 -27 -169 -30 l-113 -4 0 -344 0 -344 -60
0 -60 0 2 398 3 397 160 5 c171 6 188 10 254 66 18 15 44 50 59 78 24 48 26
62 30 209 l4 157 1049 0 1049 0 0 -130z m-3085 -159 c24 -49 50 -149 41 -159
-3 -2 -23 34 -46 80 -54 108 -70 124 -29 28 45 -106 69 -180 59 -180 -10 0
-109 193 -135 263 -10 26 -20 45 -22 43 -8 -8 28 -107 78 -213 76 -163 42
-126 -65 72 -15 26 -16 27 -10 5 4 -14 20 -54 36 -90 l29 -64 -30 28 c-50 48
-82 134 -88 240 -3 52 -3 106 1 122 l8 29 73 -77 c41 -42 86 -99 100 -127z
m4254 97 c2 -121 -35 -233 -93 -288 l-27 -24 29 64 c51 113 45 118 -14 13 -31
-57 -60 -103 -65 -103 -4 0 14 46 40 103 50 106 86 205 78 213 -2 2 -12 -17
-22 -43 -26 -70 -125 -263 -135 -263 -13 0 15 83 64 195 38 85 16 56 -34 -43
-23 -46 -43 -82 -46 -80 -2 3 0 28 6 57 15 78 67 168 139 240 74 75 79 72 80
-41z m-1339 -45 c0 -176 96 -332 249 -405 53 -25 83 -33 156 -37 l90 -6 3
-312 2 -313 -30 0 -30 0 0 279 0 280 -47 6 c-130 18 -223 63 -309 149 -89 89
-144 210 -144 318 l0 48 -410 0 -410 0 0 -105 c0 -58 -3 -105 -6 -105 -4 0
-30 13 -58 29 -141 79 -304 99 -421 51 l-60 -25 -3 -341 -2 -342 62 26 c119
48 275 30 423 -51 l60 -32 3 -92 3 -93 -691 0 -690 0 0 314 0 314 93 4 c120 5
198 41 279 126 89 93 128 188 128 315 l0 67 880 0 880 0 0 -67z m-2580 -54
c-15 -89 -69 -199 -118 -239 -20 -16 -40 -30 -43 -30 -4 0 15 33 42 73 57 85
65 112 12 41 -58 -77 -112 -138 -118 -132 -3 3 10 25 29 49 52 68 125 184 136
216 8 24 8 25 -3 9 -15 -22 -160 -223 -182 -250 -8 -11 -18 -17 -21 -13 -7 7
28 70 89 162 51 76 22 53 -40 -31 -26 -35 -48 -62 -50 -60 -2 2 6 29 17 60 26
69 106 158 193 217 59 39 62 40 65 19 2 -12 -2 -53 -8 -91z m3536 7 c68 -62
106 -117 122 -178 6 -21 9 -38 7 -38 -2 0 -23 28 -48 63 -25 34 -55 71 -67 82
-17 14 -14 7 9 -25 51 -71 113 -181 106 -188 -3 -4 -9 -2 -13 3 -4 6 -42 57
-85 114 -43 57 -85 117 -93 133 -9 16 -18 27 -21 25 -7 -8 48 -102 111 -190
66 -92 69 -97 59 -97 -4 0 -39 38 -78 85 -38 47 -71 85 -72 85 -5 0 67 -112
85 -132 24 -28 0 -21 -39 11 -65 54 -128 208 -129 314 l0 38 41 -23 c23 -13
70 -49 105 -82z m-1350 -78 l59 -23 3 -341 2 -342 -62 26 c-116 48 -260 33
-411 -44 -37 -19 -69 -34 -72 -34 -3 0 -4 152 -3 338 l3 337 75 39 c147 78
285 92 406 44z m-629 -77 c44 -17 87 -38 93 -46 17 -21 11 -19 -63 15 -96 45
-205 65 -281 52 -34 -6 -72 -14 -86 -18 -17 -5 -22 -4 -15 4 20 21 82 31 175
28 78 -3 110 -9 177 -35z m751 -379 l-3 -362 -35 23 c-87 58 -138 72 -260 71
-93 0 -127 -5 -174 -22 -33 -12 -61 -20 -63 -18 -9 9 116 59 182 72 87 19 181
5 262 -37 30 -16 57 -29 59 -29 2 0 4 156 4 347 0 310 2 346 15 332 13 -13 15
-65 13 -377z m-780 324 c71 -24 149 -66 124 -66 -7 0 -34 11 -61 24 -104 53
-260 71 -346 41 -21 -8 -41 -12 -44 -10 -8 9 9 18 61 31 71 18 178 10 266 -20z
m-1998 -43 c75 -56 144 -141 165 -202 27 -79 18 -89 -22 -24 -21 33 -49 74
-61 89 l-24 29 23 -40 c73 -132 100 -186 97 -197 -5 -13 -78 89 -150 207 -26
44 -48 77 -48 72 0 -16 74 -155 120 -224 27 -40 44 -73 39 -73 -11 0 -129 158
-129 173 0 5 -3 8 -6 5 -6 -7 28 -78 58 -120 30 -43 5 -33 -39 15 -46 50 -79
130 -93 225 -12 84 -12 112 -1 112 5 0 37 -21 71 -47z m4420 20 c-1 -53 -28
-181 -48 -226 -19 -42 -100 -142 -109 -134 -2 2 15 35 37 73 45 77 54 110 14
49 -47 -70 -106 -145 -115 -145 -5 0 13 33 40 73 50 74 125 216 118 223 -2 2
-14 -15 -27 -39 -13 -23 -55 -89 -94 -146 -108 -160 -96 -106 24 104 l23 40
-26 -30 c-14 -16 -41 -56 -59 -87 -18 -32 -36 -58 -39 -58 -4 0 -3 19 3 43 11
49 46 113 91 164 33 38 143 123 158 123 5 0 9 -12 9 -27z m-3963 -85 c-6 -126
-33 -204 -89 -262 l-39 -41 29 60 c50 102 46 114 -7 25 -85 -140 -95 -133 -21
16 86 173 101 227 22 79 -32 -60 -72 -132 -90 -160 -49 -78 -39 -26 18 94 28
57 50 106 50 109 0 11 -34 -42 -73 -113 l-38 -70 6 45 c10 81 58 160 145 244
44 42 83 76 86 76 4 0 4 -46 1 -102z m3543 -4 c68 -73 105 -143 115 -214 l7
-45 -42 74 c-82 148 -92 148 -20 0 57 -120 67 -172 18 -94 -18 28 -58 100 -90
160 -80 148 -64 94 21 -77 38 -76 65 -135 60 -132 -13 7 -69 91 -101 149 -40
72 -34 37 7 -45 35 -69 28 -86 -12 -32 -57 78 -83 167 -83 288 l0 75 28 -20
c16 -11 57 -50 92 -87z m-1973 37 c44 -17 87 -38 93 -46 17 -21 11 -19 -63 15
-96 45 -205 65 -281 52 -34 -6 -72 -14 -86 -18 -17 -5 -22 -4 -15 4 20 21 82
31 175 28 78 -3 110 -9 177 -35z m-55 -46 c63 -19 158 -64 158 -76 0 -5 -26 4
-58 20 -129 65 -280 79 -384 36 -10 -4 -18 -3 -18 3 0 8 29 18 105 36 32 7
147 -3 197 -19z m55 -84 c44 -17 87 -38 93 -46 17 -21 7 -19 -48 9 -134 67
-239 78 -382 40 -17 -5 -22 -4 -15 4 20 21 82 31 175 28 78 -3 110 -9 177 -35z
m-100 -37 c77 -16 203 -68 203 -84 0 -5 -29 5 -65 21 -138 65 -273 77 -377 34
-10 -4 -18 -3 -18 3 0 8 41 22 105 36 40 8 78 6 152 -10z m88 -89 c71 -29 119
-55 112 -62 -2 -2 -33 10 -69 27 -97 45 -205 65 -282 52 -34 -6 -72 -14 -86
-18 -17 -5 -22 -4 -15 4 20 21 82 31 175 28 76 -2 109 -9 165 -31z m979 -48
c11 -43 6 -67 -24 -100 -37 -43 -39 -67 -5 -67 15 0 25 -6 25 -14 0 -16 -66
-20 -76 -5 -10 17 9 79 33 105 15 17 23 35 21 52 -4 31 -28 42 -28 13 0 -12
-6 -21 -15 -21 -20 0 -20 46 1 58 25 14 62 2 68 -21z m118 9 c4 -6 8 -48 8
-93 0 -100 -19 -128 -74 -107 -13 5 -16 24 -16 105 0 94 1 100 23 108 24 9 48
4 59 -13z m108 9 c6 -3 10 -25 10 -49 0 -32 -6 -48 -25 -66 -14 -13 -25 -34
-25 -47 0 -18 5 -23 25 -23 16 0 25 -6 25 -16 0 -12 -9 -14 -37 -12 -37 3 -38
5 -41 43 -2 33 2 45 23 65 17 16 25 34 25 57 0 36 -19 45 -27 13 -6 -23 -26
-22 -31 2 -7 34 42 55 78 33z m118 -46 c2 -37 -1 -49 -23 -69 -34 -32 -34 -70
0 -70 16 0 25 -6 25 -16 0 -12 -9 -14 -37 -12 -37 3 -38 5 -41 43 -2 33 2 45
23 65 17 16 25 34 25 57 0 36 -15 45 -23 13 -7 -27 -27 -25 -27 3 0 33 17 46
48 38 24 -6 27 -13 30 -52z m-3314 -31 c87 -87 125 -151 133 -223 5 -40 4 -40
-36 30 -71 123 -82 124 -21 1 60 -119 67 -136 53 -136 -10 0 -86 122 -140 225
-23 44 -43 74 -43 66 0 -20 72 -169 113 -234 21 -32 37 -60 37 -63 0 -16 -29
18 -81 98 -68 104 -75 104 -20 1 21 -40 35 -73 31 -73 -18 0 -81 87 -101 139
-26 65 -40 251 -20 251 7 0 49 -37 95 -82z m1987 42 c74 -27 136 -60 112 -60
-6 0 -36 12 -68 26 -119 55 -235 68 -331 39 -58 -18 -54 -17 -54 -6 0 7 31 18
105 35 43 10 162 -7 236 -34z m2407 -57 c-6 -115 -30 -189 -84 -251 -19 -23
-39 -42 -44 -42 -4 0 10 33 31 73 55 103 48 103 -20 -1 -52 -80 -81 -114 -81
-98 0 3 19 36 42 73 44 73 108 207 108 226 0 7 -20 -24 -43 -68 -56 -106 -136
-229 -145 -221 -3 4 22 61 55 128 67 132 61 139 -13 13 -46 -80 -46 -80 -41
-38 9 72 46 133 133 221 46 45 88 82 95 82 8 0 10 -28 7 -97z m-3971 -25 c-3
-46 -13 -106 -22 -135 -17 -59 -69 -139 -103 -161 -22 -14 -21 -11 8 39 32 54
53 99 46 99 -3 0 -15 -17 -27 -37 -38 -62 -100 -145 -106 -140 -2 3 11 31 31
61 42 65 110 200 120 236 4 14 -11 -9 -34 -50 -65 -117 -153 -246 -157 -232
-3 6 21 60 51 120 57 108 37 102 -25 -8 l-30 -55 6 43 c6 48 34 109 74 161 28
38 149 141 164 141 6 0 8 -33 4 -82z m3525 28 c95 -79 168 -197 168 -271 0
-12 -12 1 -30 35 -62 113 -80 115 -23 3 31 -62 54 -115 51 -119 -8 -7 -105
138 -161 241 -21 39 -35 59 -31 45 9 -36 76 -167 119 -234 20 -32 34 -60 32
-63 -6 -6 -91 107 -114 150 -8 16 -17 26 -20 23 -3 -3 12 -37 35 -76 44 -76
43 -88 -5 -37 -40 42 -70 102 -88 179 -16 68 -20 178 -7 178 4 0 38 -24 74
-54z m-1945 -15 c44 -17 87 -38 93 -46 17 -21 11 -19 -63 15 -96 45 -205 65
-281 52 -34 -6 -72 -14 -86 -18 -37 -10 -18 6 27 22 66 25 212 13 310 -25z
m2393 -461 l0 -50 -2250 0 -2250 0 0 50 0 50 2250 0 2250 0 0 -50z m-4380
-558 c0 -281 3 -381 12 -390 10 -10 113 -18 120 -9 1 1 5 175 8 387 l5 385 60
0 60 0 0 -395 c0 -359 -2 -398 -18 -427 -25 -47 -69 -66 -163 -71 -66 -4 -89
-1 -126 15 -79 35 -78 32 -78 487 l0 396 60 0 60 0 0 -378z m624 168 l61 -205
3 208 2 207 60 0 60 0 -2 -447 -3 -448 -57 -3 -58 -3 0 85 c0 75 -6 105 -60
277 -34 106 -63 195 -65 198 -3 2 -5 -122 -5 -277 l0 -282 -60 0 -60 0 0 450
0 451 61 -3 62 -3 61 -205z m481 -240 l0 -445 -60 0 -60 0 -3 435 c-1 239 0
441 3 448 3 9 22 12 62 10 l58 -3 0 -445z m255 441 c0 -18 90 -634 93 -637 1
-2 22 137 46 309 24 172 46 318 49 325 5 13 107 18 115 5 5 -8 -8 -94 -101
-663 l-37 -225 -72 -3 c-40 -2 -73 -1 -73 1 0 2 -31 196 -70 433 -38 236 -70
437 -70 447 0 14 9 17 60 17 33 0 60 -4 60 -9z m725 -51 l0 -55 -88 0 -87 0 0
-132 0 -132 78 -3 77 -3 3 -52 3 -53 -80 0 -81 0 0 -145 0 -144 88 -3 87 -3 0
-55 0 -55 -147 -3 -148 -3 0 451 0 451 148 -3 147 -3 0 -55z m444 42 c65 -33
75 -57 79 -202 6 -178 -2 -233 -40 -275 l-30 -35 40 -177 c21 -98 37 -181 35
-185 -2 -5 -27 -8 -54 -8 -60 0 -55 -10 -100 203 l-34 157 -32 0 -33 0 -2
-177 -3 -178 -60 0 -60 0 -3 435 c-1 239 0 441 3 448 3 9 39 12 132 12 102 0
135 -4 162 -18z m510 0 c59 -30 76 -63 76 -150 l0 -77 -57 -3 -58 -3 0 40 c0
22 -4 51 -10 65 -8 23 -15 26 -54 26 -54 0 -56 -4 -56 -126 l0 -94 33 -20 c17
-12 66 -40 107 -63 42 -24 80 -53 87 -67 8 -16 13 -72 13 -160 0 -149 -10
-185 -63 -224 -24 -18 -43 -21 -120 -21 -80 0 -96 3 -124 23 -36 25 -52 64
-55 137 l-3 50 60 0 60 0 3 -35 c5 -48 18 -60 63 -60 33 0 41 4 49 26 12 32
13 155 1 186 -5 15 -41 41 -97 73 -140 78 -134 67 -134 248 0 144 2 156 23
188 13 19 38 39 57 46 54 18 159 16 199 -5z m361 -432 l0 -450 -60 0 -60 0 0
450 0 450 60 0 60 0 0 -450z m480 389 l0 -61 -55 4 -55 3 0 -392 0 -393 -60 0
-60 0 -2 392 -3 391 -55 1 -55 1 -3 44 c-5 74 -12 71 178 71 l170 0 0 -61z
m251 -109 c21 -91 41 -176 45 -190 5 -18 16 24 41 145 47 228 41 215 108 215
35 0 55 -4 55 -11 0 -7 -31 -134 -70 -284 l-70 -272 0 -167 0 -166 -60 0 -60
0 0 161 0 162 -71 271 c-39 149 -73 279 -75 289 -5 16 1 18 57 15 l62 -3 38
-165z m-3091 -886 c0 -47 3 -54 20 -54 16 0 19 8 22 58 2 43 7 57 18 57 12 0
15 -23 18 -137 2 -133 2 -138 -18 -138 -18 0 -20 6 -20 60 0 53 -2 60 -20 60
-18 0 -20 -7 -20 -60 0 -53 -2 -60 -20 -60 -19 0 -20 7 -20 134 0 98 3 136 13
139 22 8 27 -3 27 -59z m288 -57 c3 -117 3 -117 27 -117 18 0 25 -5 25 -20 0
-17 -7 -20 -45 -20 l-45 0 0 133 c0 74 3 137 7 141 20 20 28 -9 31 -117z m110
0 c3 -117 3 -117 27 -117 18 0 25 -5 25 -20 0 -17 -7 -20 -45 -20 l-45 0 0
133 c0 74 3 137 7 141 20 20 28 -9 31 -117z m170 75 c3 -27 0 -32 -17 -32 -14
0 -21 6 -21 20 0 11 -7 20 -15 20 -10 0 -15 -10 -15 -34 0 -28 6 -38 35 -55
33 -19 35 -23 35 -74 0 -58 -12 -77 -48 -77 -37 0 -62 18 -62 45 0 18 5 25 20
25 11 0 20 -7 20 -15 0 -8 7 -15 15 -15 10 0 15 10 15 34 0 28 -6 38 -35 55
-32 19 -35 24 -35 68 0 55 7 69 35 75 42 9 70 -6 73 -40z m204 24 c4 -6 8 -61
8 -123 0 -124 -5 -133 -67 -133 -48 0 -53 14 -53 142 0 111 1 119 21 126 27
10 82 3 91 -12z m126 2 c3 -13 -3 -18 -22 -18 -24 0 -26 -4 -26 -40 0 -36 2
-40 26 -40 33 0 30 -33 -4 -38 -20 -3 -22 -9 -22 -63 0 -52 -2 -59 -20 -59
-19 0 -20 7 -20 133 0 74 3 137 7 141 4 4 23 6 43 4 24 -2 36 -9 38 -20z m123
-46 l1 -57 16 57 c14 50 35 78 49 64 3 -3 -3 -35 -13 -73 -17 -67 -17 -69 4
-126 27 -70 27 -77 4 -77 -13 0 -24 17 -39 63 l-21 62 -1 -62 c-1 -56 -3 -63
-21 -63 -19 0 -20 7 -20 134 0 98 3 136 13 139 22 8 27 -3 28 -61z m137 56 c5
-7 13 -29 18 -48 l8 -35 6 45 c3 32 10 46 23 48 15 3 17 -9 17 -138 0 -129 -1
-141 -17 -138 -13 2 -20 17 -24 53 -4 28 -12 61 -17 75 -9 20 -11 11 -11 -52
-1 -71 -3 -78 -21 -78 -19 0 -20 7 -20 133 0 74 3 137 7 140 10 10 19 8 31 -5z
m219 -14 c9 -12 13 -52 13 -120 0 -116 -9 -134 -65 -134 -57 0 -65 17 -65 140
0 97 2 110 20 123 26 18 81 13 97 -9z m77 -75 l12 -84 8 82 c9 92 28 125 46
78 5 -14 11 -43 11 -63 1 -20 4 -50 8 -67 6 -23 9 -9 15 57 6 65 12 88 24 93
8 3 18 2 22 -2 4 -4 -2 -68 -14 -141 -18 -124 -21 -133 -40 -130 -17 2 -23 14
-32 68 l-11 65 -9 -65 c-8 -56 -12 -65 -31 -68 -13 -2 -23 0 -23 5 0 4 -9 64
-20 133 -15 96 -17 126 -7 132 20 12 28 -6 41 -93z m204 -22 c3 -117 3 -117
27 -117 18 0 25 -5 25 -20 0 -17 -7 -20 -45 -20 l-45 0 0 133 c0 74 3 137 7
141 20 20 28 -9 31 -117z m160 101 c3 -13 -3 -18 -22 -18 -24 0 -26 -4 -26
-39 0 -33 4 -40 23 -43 12 -2 22 -10 22 -18 0 -8 -10 -16 -22 -18 -19 -3 -23
-10 -23 -43 0 -35 3 -39 25 -39 18 0 25 -5 25 -20 0 -17 -7 -20 -45 -20 l-45
0 0 133 c0 74 3 137 7 141 4 4 23 6 43 4 24 -2 36 -9 38 -20z m127 2 c19 -16
22 -229 3 -248 -7 -7 -34 -12 -60 -12 l-48 0 0 133 c0 74 3 137 8 141 10 11
80 0 97 -14z m148 3 c4 -2 7 -20 7 -39 0 -28 -4 -35 -17 -32 -10 2 -19 13 -21
26 -2 12 -10 22 -18 22 -11 0 -14 -20 -14 -100 0 -82 3 -100 15 -100 10 0 15
10 15 30 0 17 -4 30 -10 30 -5 0 -10 9 -10 20 0 16 7 20 30 20 l30 0 0 -70 0
-70 -43 0 c-24 0 -48 5 -55 12 -8 8 -12 52 -12 130 0 114 1 119 23 127 20 8
60 5 80 -6z m125 -5 c3 -14 -3 -18 -22 -18 -24 0 -26 -4 -26 -40 0 -33 3 -40
20 -40 13 0 20 -7 20 -20 0 -13 -7 -20 -20 -20 -17 0 -20 -7 -20 -40 0 -36 3
-40 25 -40 18 0 25 -5 25 -20 0 -17 -7 -20 -45 -20 l-45 0 0 139 0 138 42 -1
c32 -1 44 -5 46 -18z m-2000 -126 c2 -124 1 -133 -15 -130 -14 2 -19 15 -21
51 -2 33 -7 47 -18 47 -10 0 -14 -13 -14 -50 0 -43 -3 -50 -20 -50 -19 0 -20
7 -20 128 0 71 3 132 7 136 4 4 28 6 53 4 l45 -3 3 -133z m-368 58 l0 -50
-505 0 -505 0 0 50 0 50 505 0 505 0 0 -50z m3490 0 l0 -50 -507 2 -508 3 -3
33 c-7 66 -42 62 513 62 l505 0 0 -50z m-3642 -193 c111 -400 460 -720 1103
-1012 l127 -57 6 -60 c4 -33 6 -62 4 -63 -5 -6 -355 156 -453 209 -423 228
-691 481 -834 787 -34 72 -91 242 -91 270 0 5 26 9 58 9 l57 0 23 -83z m128
-4 c107 -322 389 -586 892 -834 136 -67 142 -71 142 -100 0 -26 -3 -29 -21
-24 -44 14 -299 145 -405 208 -354 210 -586 469 -673 751 -27 86 -27 86 8 86
26 0 30 -5 57 -87z m2788 60 c-46 -204 -139 -386 -285 -558 -142 -169 -351
-327 -633 -480 -102 -55 -449 -216 -454 -210 -2 2 -1 30 3 63 l7 60 136 62
c634 287 983 610 1095 1010 l22 80 58 0 57 0 -6 -27z m-3190 -82 c29 -129 17
-259 -29 -317 l-23 -29 13 50 c7 28 15 70 19 95 6 51 0 36 -30 -65 -23 -77
-44 -129 -50 -122 -3 2 5 38 16 78 21 76 53 260 46 267 -2 2 -9 -23 -16 -55
-17 -86 -71 -277 -81 -287 -14 -15 -11 23 11 135 11 57 18 104 16 107 -5 4
-36 -100 -43 -145 -8 -47 -23 -30 -23 26 0 55 22 137 55 201 29 57 82 130 94
130 5 0 17 -31 25 -69z m3393 31 c76 -105 127 -258 108 -327 -7 -28 -9 -25
-25 40 -10 39 -23 81 -29 95 l-11 25 4 -25 c15 -77 36 -205 36 -217 0 -59 -60
128 -90 280 -7 32 -14 57 -16 54 -11 -10 28 -217 62 -332 5 -16 4 -17 -6 -8
-7 6 -28 60 -46 120 -26 82 -33 96 -28 58 4 -27 12 -69 19 -92 17 -57 2 -55
-26 4 -32 65 -38 196 -14 293 9 38 21 70 26 70 5 0 21 -17 36 -38z m-3810
-136 c29 -14 69 -41 89 -58 39 -34 94 -104 94 -120 0 -4 -33 19 -73 52 -41 33
-76 60 -79 60 -3 0 36 -40 86 -89 50 -50 87 -93 84 -97 -9 -8 -124 83 -217
171 -39 36 -56 48 -44 30 23 -33 134 -142 198 -193 22 -18 35 -32 30 -32 -14
0 -79 44 -145 98 -54 45 -54 44 15 -26 66 -68 67 -71 35 -59 -57 20 -142 113
-182 197 -20 41 -38 87 -42 102 l-6 27 53 -18 c29 -10 76 -30 104 -45z m4303
-1 c-40 -117 -111 -210 -192 -251 -26 -13 -48 -22 -48 -20 0 2 30 34 68 71 60
61 62 63 17 28 -78 -62 -137 -103 -149 -103 -6 0 7 14 29 32 63 51 175 160
198 193 14 20 0 11 -39 -25 -91 -85 -214 -183 -222 -176 -3 4 34 48 84 98 64
66 77 82 44 58 -25 -18 -62 -50 -84 -69 l-38 -36 20 40 c26 53 106 126 173
161 52 26 151 64 157 59 1 -1 -7 -28 -18 -60z m-930 35 c0 -17 -49 -110 -99
-185 -57 -88 -230 -262 -341 -344 -137 -101 -428 -266 -590 -333 l-35 -15 3
47 c3 38 8 50 26 58 29 13 84 148 69 171 -7 11 -31 17 -82 21 l-73 5 27 25
c45 42 68 98 68 165 0 81 -26 130 -128 235 -86 90 -115 126 -115 147 0 10 126
13 635 13 430 0 635 -3 635 -10z m-1288 -85 c5 -11 34 -52 65 -90 63 -78 83
-119 83 -167 1 -29 2 -31 12 -14 6 11 8 40 5 70 l-6 51 24 -40 c38 -62 42
-114 12 -178 -24 -53 -59 -87 -111 -107 -31 -11 -34 0 -6 25 26 23 27 93 3
138 l-18 32 -5 -52 c-7 -63 -34 -103 -84 -122 -96 -37 -211 70 -191 177 5 31
49 122 59 122 1 0 1 -25 -2 -55 -5 -64 10 -107 43 -125 55 -29 72 15 30 78
-35 53 -41 94 -20 147 9 25 20 45 23 45 4 0 7 -17 7 -39 1 -54 29 -93 63 -89
37 4 39 31 6 81 -29 44 -41 108 -29 154 l7 28 10 -25 c6 -14 15 -34 20 -45z
m-1544 -92 c17 -38 35 -86 41 -108 15 -55 13 -174 -4 -210 -13 -28 -14 -24
-16 65 l-2 95 -7 -71 c-24 -225 -36 -230 -32 -13 2 89 0 165 -5 170 -4 4 -9
-33 -9 -82 -2 -134 -15 -260 -25 -253 -5 3 -10 65 -10 137 -1 141 -15 135 -18
-8 -2 -91 -15 -86 -32 13 -8 44 -7 74 5 128 14 69 65 204 77 204 3 0 20 -30
37 -67z m3154 4 c53 -124 66 -280 29 -344 -8 -14 -11 -1 -12 57 -3 136 -17
143 -18 8 0 -70 -5 -129 -10 -133 -9 -5 -14 28 -30 230 l-9 110 2 -168 c0 -92
-2 -167 -6 -167 -6 0 -15 54 -28 174 l-7 71 -2 -95 c-3 -95 -3 -95 -18 -60
-18 42 -20 138 -3 200 13 51 70 180 79 180 3 0 18 -28 33 -63z m-3548 -204
c81 -20 149 -56 197 -104 45 -45 46 -62 2 -31 -30 21 -128 72 -139 72 -3 0 42
-31 100 -70 58 -38 106 -75 106 -81 0 -11 -172 77 -268 138 -31 20 -51 29 -43
20 18 -23 129 -96 221 -146 107 -58 59 -51 -60 9 -55 28 -100 48 -100 46 0 -3
34 -26 75 -52 41 -26 73 -49 72 -51 -10 -9 -108 32 -150 62 -45 34 -123 128
-154 188 l-14 28 48 -6 c26 -4 75 -14 107 -22z m4005 -12 c-66 -117 -170 -210
-256 -229 -24 -6 -43 -9 -43 -7 0 1 34 24 75 50 41 27 74 50 72 51 -2 2 -47
-19 -100 -47 -54 -28 -103 -49 -110 -46 -7 2 12 16 41 31 68 34 178 106 217
141 l30 27 -30 -18 c-16 -10 -57 -35 -90 -55 -89 -54 -205 -111 -205 -100 0
11 72 63 152 111 86 52 61 49 -37 -4 -76 -41 -84 -44 -70 -22 50 76 201 142
358 155 17 1 17 -2 -4 -38z m-3439 -62 c69 -113 97 -223 78 -309 l-12 -55 -10
85 -11 85 -5 -107 c-3 -58 -8 -109 -11 -112 -3 -4 -9 44 -12 106 -6 104 -25
243 -32 236 -2 -2 2 -81 8 -175 10 -156 8 -197 -9 -181 -3 3 -10 48 -15 99
-16 142 -30 174 -23 54 5 -113 -5 -118 -32 -15 -11 44 -14 82 -10 120 10 80
48 220 60 220 2 0 18 -23 36 -51z m2825 -104 c19 -92 14 -170 -15 -230 l-19
-40 6 94 c4 69 3 92 -6 87 -6 -4 -11 -29 -11 -55 0 -61 -19 -163 -32 -176 -10
-10 -5 218 8 320 3 30 2 35 -5 19 -13 -29 -31 -185 -31 -269 0 -49 -3 -65 -10
-55 -5 8 -10 62 -11 120 -1 115 -5 115 -17 0 l-8 -75 -12 54 c-20 89 4 186 76
306 l36 59 17 -39 c10 -22 25 -76 34 -120z m-1158 -67 c-3 -7 -13 -33 -22 -58
-10 -25 -23 -51 -28 -57 -7 -10 -69 -13 -247 -13 -178 0 -240 3 -247 13 -5 6
-18 32 -28 57 -9 25 -19 51 -22 58 -4 9 59 12 297 12 238 0 301 -3 297 -12z
m-1430 -106 c61 -85 83 -147 82 -230 0 -37 -2 -62 -4 -57 -2 6 -14 47 -26 93
-12 46 -23 81 -25 79 -2 -2 3 -38 11 -81 8 -43 15 -99 14 -124 -1 -40 -4 -32
-23 58 -22 104 -65 245 -72 237 -2 -2 1 -18 6 -36 11 -41 46 -210 54 -271 12
-81 -15 -29 -51 97 -25 88 -32 105 -27 65 3 -29 12 -75 19 -102 7 -28 9 -50 5
-50 -5 0 -21 26 -37 58 -25 52 -28 67 -28 172 0 63 4 132 8 153 8 39 9 39 29
20 11 -10 41 -46 65 -81z m2367 -77 c1 -113 -1 -124 -28 -182 -16 -35 -32 -63
-36 -63 -4 0 -2 24 5 53 29 124 23 147 -8 34 -34 -117 -65 -181 -53 -107 18
115 39 221 52 264 7 27 12 51 10 53 -7 7 -34 -73 -55 -162 -40 -175 -41 -178
-36 -100 2 39 7 88 10 110 l5 40 -14 -35 c-7 -20 -17 -56 -21 -80 l-8 -45 -9
39 c-17 79 33 203 126 312 l40 47 9 -29 c5 -16 10 -83 11 -149z m-2881 95 c61
-23 137 -75 145 -100 4 -12 2 -13 -9 -3 -19 15 -170 76 -175 70 -2 -2 15 -12
38 -22 68 -30 188 -98 188 -107 0 -11 -98 26 -219 83 -57 27 -106 49 -110 49
-25 0 196 -118 261 -139 46 -15 62 -35 21 -25 -15 3 -66 21 -113 40 -46 18
-86 31 -88 29 -2 -2 34 -22 80 -45 l83 -42 -48 6 c-87 10 -182 74 -257 171
-23 30 -39 58 -37 62 9 15 180 -4 240 -27z m3488 -44 c-77 -96 -190 -166 -271
-166 -17 0 1 13 58 41 46 22 82 42 80 44 -2 2 -42 -11 -88 -29 -86 -34 -150
-53 -138 -41 3 4 49 26 101 49 85 39 217 112 217 121 0 2 -51 -20 -112 -50
-129 -60 -228 -98 -228 -87 0 9 146 91 198 112 18 7 31 15 28 17 -5 6 -158
-55 -170 -68 -23 -22 -27 -7 -5 17 30 32 90 68 149 89 50 18 210 35 224 24 5
-4 -15 -37 -43 -73z m-1646 -56 l0 -45 -195 0 -195 0 -3 33 c-6 64 -12 63 200
60 l193 -3 0 -45z m-1140 -25 c104 -70 178 -169 190 -257 l6 -43 -31 60 c-55
107 -71 113 -25 10 60 -133 58 -163 -3 -44 -46 90 -127 219 -138 219 -3 0 7
-19 21 -42 38 -61 144 -282 138 -288 -7 -7 -40 40 -95 134 -58 99 -62 89 -8
-19 22 -43 38 -80 36 -82 -8 -9 -81 85 -102 132 -36 79 -69 255 -48 255 3 0
29 -16 59 -35z m1955 3 c0 -53 -27 -166 -54 -223 -22 -49 -94 -140 -103 -131
-2 2 15 40 38 85 43 84 51 124 9 48 -39 -72 -102 -167 -111 -167 -13 0 76 189
136 288 14 23 24 42 20 42 -10 0 -113 -165 -151 -241 -50 -103 -37 -35 15 77
22 46 38 84 36 84 -3 0 -25 -35 -50 -77 -34 -58 -45 -71 -45 -53 0 38 43 122
87 171 39 43 148 129 164 129 5 0 9 -15 9 -32z m-861 -55 c0 -10 -28 -182 -62
-383 -54 -320 -64 -365 -81 -368 -10 -2 -22 0 -27 5 -7 7 -129 721 -129 754 0
5 66 9 150 9 136 0 150 -2 149 -17z m-804 -69 c88 -43 148 -92 187 -153 47
-75 32 -77 -38 -5 -47 50 -56 56 -31 24 53 -70 111 -160 105 -165 -3 -3 -30
27 -61 67 -31 40 -84 100 -118 133 -63 60 -64 52 -3 -15 50 -54 165 -212 159
-218 -7 -7 -85 69 -138 135 -22 29 -43 50 -46 48 -2 -3 24 -41 58 -86 58 -74
60 -79 31 -64 -75 39 -156 158 -193 283 -20 65 -15 66 88 16z m1398 -16 c-37
-126 -118 -244 -195 -284 -37 -19 -41 -26 33 66 52 66 79 115 33 60 -69 -82
-153 -165 -159 -159 -5 6 90 136 182 249 33 40 30 38 -26 -15 -34 -33 -87 -93
-118 -133 -31 -40 -58 -70 -61 -67 -5 5 45 85 100 160 18 24 2 11 -37 -30 -53
-56 -64 -64 -55 -40 36 95 128 178 250 226 69 28 71 26 53 -33z m-2149 -3 c61
-13 147 -52 160 -73 3 -5 -34 2 -82 15 -130 34 -132 27 -4 -16 109 -37 157
-61 120 -61 -21 0 -228 53 -288 74 -39 14 -43 14 -25 1 23 -18 215 -82 275
-91 22 -4 38 -10 33 -15 -7 -7 -155 17 -212 36 -12 3 -21 4 -21 1 0 -3 39 -18
88 -33 l87 -28 -45 -3 c-83 -6 -161 28 -271 119 -33 28 -58 56 -56 62 8 25
146 32 241 12z m3055 -1 c11 -10 -41 -63 -108 -112 -81 -57 -157 -85 -223 -80
-43 3 -42 3 45 31 48 15 87 30 87 33 0 3 -9 2 -21 -1 -50 -16 -203 -44 -212
-38 -5 3 30 16 79 28 92 23 259 84 251 91 -2 2 -24 -3 -48 -12 -57 -20 -265
-74 -287 -74 -36 0 11 24 120 61 128 43 126 50 -4 16 -61 -17 -84 -20 -77 -11
19 23 112 63 169 73 50 9 219 5 229 -5z m-2590 -223 c29 -16 27 -18 -14 -13
-20 2 -66 1 -103 -4 l-67 -8 123 -7 c69 -4 129 -12 135 -18 11 -11 -71 -15
-278 -13 -58 1 -72 -1 -50 -7 17 -5 97 -9 180 -10 177 -1 184 -16 15 -29 -102
-8 -108 -9 -50 -12 36 -2 78 -2 94 -1 47 4 20 -17 -39 -29 -57 -12 -99 -8
-180 17 -56 17 -165 72 -165 83 0 12 160 63 218 69 65 7 149 -1 181 -18z
m2201 -17 c44 -15 80 -31 80 -35 0 -15 -152 -80 -220 -95 -58 -12 -84 -13
-126 -4 -62 13 -83 32 -32 29 18 -2 60 -1 93 1 51 2 42 4 -55 12 -63 5 -118
13 -123 17 -4 4 57 8 135 9 79 1 159 6 178 11 25 6 -18 9 -149 10 -138 1 -182
4 -174 12 7 7 67 14 140 18 127 7 128 7 61 15 -37 5 -85 6 -107 4 -47 -4 -49
-3 -19 13 62 33 195 26 318 -17z m-1835 -94 c3 -5 -3 -10 -15 -10 -30 0 -162
-31 -157 -37 3 -2 53 3 111 12 118 19 117 19 311 -37 172 -50 178 -52 143 -68
-23 -11 -39 -7 -140 33 -178 72 -182 72 -303 43 -56 -14 -128 -29 -159 -32
-75 -9 -82 -23 -8 -17 57 5 235 38 269 50 14 5 16 3 6 -7 -7 -7 -59 -26 -115
-41 -107 -28 -100 -39 10 -15 34 7 62 9 62 6 0 -4 -24 -18 -52 -30 -73 -32
-185 -31 -292 0 l-78 23 24 19 c45 36 131 81 187 99 61 19 186 25 196 9z
m1358 -14 c64 -23 187 -93 187 -108 0 -22 -206 -62 -272 -52 -47 7 -138 42
-138 54 0 3 28 1 63 -6 104 -22 118 -14 19 12 -147 38 -187 67 -47 33 43 -10
106 -21 140 -24 33 -4 71 -8 83 -11 13 -3 21 -1 18 4 -3 5 -29 12 -58 16 -29
4 -99 18 -156 32 -100 25 -104 25 -160 9 -31 -9 -101 -35 -155 -57 -87 -35
-102 -39 -125 -28 -36 16 -30 18 167 75 l163 47 87 -11 c47 -7 102 -14 121
-16 l35 -4 -40 13 c-22 8 -64 17 -92 21 -29 4 -50 11 -47 16 11 19 138 9 207
-15z"/>
<path d="M3103 5503 c-10 -4 -13 -87 -13 -373 l0 -369 73 38 c39 21 96 44 126
51 91 21 214 5 346 -45 l20 -8 -20 16 c-34 28 -167 75 -231 82 -71 8 -164 -12
-232 -50 -25 -14 -46 -25 -48 -25 -2 0 -5 155 -6 343 -2 270 -6 343 -15 340z"/>
<path d="M2480 4986 l0 -116 34 0 c21 0 36 6 40 15 4 11 -1 15 -19 15 -22 0
-25 4 -25 35 0 28 4 35 20 35 11 0 20 7 20 15 0 8 -9 15 -20 15 -30 0 -29 67
0 72 35 5 27 23 -12 26 l-38 3 0 -115z"/>
<path d="M2582 5088 c-7 -7 -12 -29 -12 -50 0 -30 6 -42 30 -60 21 -15 30 -30
30 -50 0 -30 -17 -38 -26 -13 -8 21 -34 19 -34 -3 0 -24 19 -42 45 -42 32 0
45 20 45 67 0 37 -4 44 -31 58 -24 13 -30 22 -27 42 3 29 28 45 28 19 0 -9 7
-16 15 -16 18 0 20 31 3 48 -7 7 -21 12 -33 12 -12 0 -26 -5 -33 -12z"/>
<path d="M2675 5091 c-3 -6 1 -13 9 -18 11 -6 16 -32 18 -102 2 -65 7 -96 16
-99 9 -3 12 20 12 92 0 77 3 98 15 102 8 4 15 12 15 20 0 16 -75 20 -85 5z"/>
<path d="M2780 4985 l0 -115 29 0 c59 0 61 3 61 111 0 107 -6 119 -64 119
l-26 0 0 -115z m60 0 c0 -69 -3 -85 -15 -85 -12 0 -15 16 -15 85 0 69 3 85 15
85 12 0 15 -16 15 -85z"/>
<path d="M2892 4893 c2 -10 10 -18 18 -18 8 0 16 8 18 18 2 12 -3 17 -18 17
-15 0 -20 -5 -18 -17z"/>
<path d="M3910 5526 c-61 -17 -170 -67 -170 -77 0 -13 1 -12 72 21 126 59 265
72 356 34 25 -10 33 -11 29 -1 -11 33 -196 48 -287 23z"/>
<path d="M3935 5466 c-71 -16 -195 -70 -195 -85 0 -5 29 4 65 20 138 65 273
77 378 34 10 -4 17 -3 17 3 0 30 -175 49 -265 28z"/>
<path d="M3885 5387 c-84 -29 -145 -58 -145 -69 0 -12 6 -10 58 16 108 55 221
73 322 52 41 -9 76 -14 78 -11 13 12 -63 28 -148 32 -80 3 -106 -1 -165 -20z"/>
<path d="M3928 5335 c-69 -17 -188 -70 -188 -84 0 -5 29 4 65 20 125 59 242
74 340 44 46 -13 66 -13 52 1 -12 12 -122 34 -167 33 -25 0 -71 -7 -102 -14z"/>
<path d="M3875 5252 c-78 -26 -141 -59 -132 -68 2 -2 33 9 69 26 125 59 247
71 350 35 27 -9 38 -10 35 -2 -6 20 -78 35 -162 36 -62 0 -98 -6 -160 -27z"/>
<path d="M3935 5205 c-70 -15 -195 -69 -195 -84 0 -5 28 3 63 19 125 59 246
74 342 45 46 -13 66 -13 52 1 -11 11 -121 34 -162 33 -22 0 -67 -7 -100 -14z"/>
<path d="M3875 5122 c-80 -27 -141 -59 -132 -68 3 -3 27 6 54 19 113 58 268
77 361 44 29 -10 42 -11 39 -4 -6 20 -78 35 -162 36 -62 0 -98 -6 -160 -27z"/>
<path d="M3935 5075 c-70 -15 -195 -69 -195 -84 0 -5 33 5 73 24 121 55 236
69 332 40 27 -8 51 -12 54 -10 8 9 -4 14 -64 30 -70 18 -119 18 -200 0z"/>
<path d="M3875 4992 c-78 -26 -141 -59 -132 -68 2 -2 34 10 70 27 120 56 293
69 370 28 15 -9 18 -8 15 2 -7 22 -76 37 -163 38 -62 0 -98 -6 -160 -27z"/>
<path d="M4585 5057 c-4 -8 -5 -45 -3 -83 2 -53 6 -69 18 -69 12 0 15 15 15
79 0 55 -4 81 -12 83 -7 3 -15 -2 -18 -10z"/>
<path d="M3930 4068 l0 -158 48 0 c26 0 53 5 60 12 17 17 17 272 0 286 -7 5
-34 11 -60 13 l-48 4 0 -157z"/>
<path d="M3310 3210 c0 -93 1 -100 20 -100 19 0 20 7 20 100 0 93 -1 100 -20
100 -19 0 -20 -7 -20 -100z"/>
<path d="M3917 3304 c-4 -4 -7 -50 -7 -101 0 -92 1 -94 23 -91 21 3 22 7 22
98 0 78 -3 95 -15 98 -9 1 -19 0 -23 -4z"/>
<path d="M4490 3211 c0 -95 1 -101 20 -101 20 0 21 5 18 97 -3 84 -6 98 -20
101 -16 3 -18 -7 -18 -97z"/>
<path d="M2760 3260 c0 -38 4 -50 15 -50 11 0 15 12 15 50 0 38 -4 50 -15 50
-11 0 -15 -12 -15 -50z"/>
<path d="M3691 1873 c1 -105 4 -168 9 -153 12 37 12 330 0 330 -6 0 -10 -65
-9 -177z"/>
<path d="M3620 2010 c0 -23 31 -276 35 -285 5 -10 0 83 -11 223 -3 39 -10 72
-15 72 -5 0 -9 -5 -9 -10z"/>
<path d="M3756 1968 c-3 -29 -7 -98 -10 -153 l-4 -100 18 140 c23 167 22 165
11 165 -5 0 -12 -24 -15 -52z"/>
</g>
</svg>
